<svg width="400" height="434" viewBox="0 0 400 434" fill="none" xmlns="http://www.w3.org/2000/svg">
<path d="M219 -138L221.813 181.256L274.534 -133.629L227.37 182.136L328.701 -120.625L232.721 183.874L380.167 -99.3073L237.734 186.429L427.664 -70.201L242.286 189.736L470.023 -34.0229L246.264 193.714L506.201 8.33624L249.571 198.266L535.307 55.8334L252.126 203.279L556.625 107.299L253.864 208.63L569.629 161.466L254.744 214.187L574 217L254.744 219.813L569.629 272.534L253.864 225.37L556.625 326.701L252.126 230.721L535.307 378.167L249.571 235.734L506.201 425.664L246.264 240.286L470.023 468.023L242.286 244.264L427.664 504.201L237.734 247.571L380.167 533.307L232.721 250.126L328.701 554.625L227.37 251.864L274.534 567.629L221.813 252.744L219 572L216.187 252.744L163.466 567.629L210.63 251.864L109.299 554.625L205.279 250.126L57.8334 533.307L200.266 247.571L10.3362 504.201L195.714 244.264L-32.0229 468.023L191.736 240.286L-68.201 425.664L188.429 235.734L-97.3073 378.167L185.874 230.721L-118.625 326.701L184.136 225.37L-131.629 272.534L183.256 219.813L-136 217L183.256 214.187L-131.629 161.466L184.136 208.63L-118.625 107.299L185.874 203.279L-97.3073 55.8334L188.429 198.266L-68.201 8.33624L191.736 193.714L-32.0229 -34.0229L195.714 189.736L10.3362 -70.201L200.266 186.429L57.8334 -99.3073L205.279 183.874L109.299 -120.625L210.63 182.136L163.466 -133.629L216.187 181.256L219 -138Z" fill="url(#paint0_radial_101_983)"/>
<defs>
<radialGradient id="paint0_radial_101_983" cx="0" cy="0" r="1" gradientUnits="userSpaceOnUse" gradientTransform="translate(219 217) rotate(90) scale(215.5)">
<stop stop-color="#3A795B"/>
<stop offset="1" stop-color="#3A795B" stop-opacity="0"/>
</radialGradient>
</defs>
</svg>
