<svg xmlns="http://www.w3.org/2000/svg" viewBox="0 0 273.99 288.1"><defs><style>.cls-1,.cls-13{fill:#e6e6e6;}.cls-1,.cls-13,.cls-4,.cls-5{stroke:gray;}.cls-1,.cls-10,.cls-11,.cls-12,.cls-13,.cls-14,.cls-17,.cls-4,.cls-5{stroke-linecap:round;stroke-linejoin:round;}.cls-1,.cls-11,.cls-12,.cls-13,.cls-14,.cls-16,.cls-4,.cls-5{stroke-width:1.13px;}.cls-2{fill:#919191;}.cls-3,.cls-4{fill:#b5b5b5;}.cls-10,.cls-11,.cls-16,.cls-5{fill:none;}.cls-15,.cls-18,.cls-6{fill:#005bb2;}.cls-7{fill:#003466;}.cls-17,.cls-20,.cls-8{fill:#fdd40b;}.cls-12,.cls-9{fill:#edac0b;}.cls-10,.cls-11,.cls-12,.cls-14,.cls-17,.cls-18,.cls-20{stroke:#9a6e01;}.cls-10,.cls-20{stroke-width:0.25px;}.cls-13,.cls-14,.cls-15{fill-rule:evenodd;}.cls-14{fill:gold;}.cls-16{stroke:#916908;}.cls-16,.cls-20{stroke-miterlimit:11.34;}.cls-17,.cls-18,.cls-19{stroke-width:0.75px;}.cls-18,.cls-19{stroke-miterlimit:10;}.cls-19{fill:#009639;stroke:#006125;}</style></defs><g id="Шар_2" data-name="Шар 2"><g id="Шар_3" data-name="Шар 3"><path class="cls-1" d="M46.08,36.75q-5.73-5.7-11.44-11.44a4.57,4.57,0,0,0-1.43,0,4.73,4.73,0,0,0-4,5.4L41.92,43.4Z"/><polygon class="cls-2" points="3.1 55.33 0.95 66.17 15.6 78.36 26.25 65.13 40.2 50.66 52.17 40.23 65.75 30.18 78.94 21.98 86.11 18.05 87.17 14.79 64.31 21.59 3.1 55.33"/><polygon class="cls-3" points="17.14 65.05 15.28 78.84 0.56 66.53 2.98 55.63 17.14 65.05"/><path class="cls-4" d="M55.73,56.65,239.59,258.32a4.92,4.92,0,0,0,4-1.25,5,5,0,0,0,1.47-4.12L58.06,48.19C57.28,51,56.49,53.83,55.73,56.65Z"/><path class="cls-1" d="M3,55.47A117.53,117.53,0,0,1,18.17,40.63C43.2,20.26,71,14.89,87.08,13.28l.08,2.39a147.83,147.83,0,0,0-69.87,51Z"/><path class="cls-5" d="M15.43,78.58A205.7,205.7,0,0,1,86.11,18.05l1-2.39"/><polyline class="cls-5" points="17.29 66.67 15.44 78.58 0.56 66.28 2.98 55.47"/><path class="cls-1" d="M60.66,50.9,49.22,39.47a4.29,4.29,0,0,0-1.43,0,4.75,4.75,0,0,0-4,5.41L56.49,57.56Z"/><path class="cls-1" d="M237.72,41.4l12.66-12.68a4.73,4.73,0,0,0-4-5.4,4.51,4.51,0,0,0-1.42,0Q239.27,29,233.55,34.75Z"/><polygon class="cls-2" points="193.69 13.59 211.44 25.43 231.07 42.63 243.28 56.28 258.23 77.19 266.11 77.19 273.39 69.91 273.77 59.85 237.13 28.84 217.91 16.93 193.69 8.38 193.16 10.88 193.69 13.59"/><polygon class="cls-3" points="266 59.64 273.39 59.64 273.39 70.29 265.63 77.19 257.88 77.19 257.88 64.14 266 59.64"/><polygon class="cls-3" points="193.16 12.04 200.1 14.65 215.37 22.41 231.21 34.41 245.28 48.48 255.19 60.7 257.61 65.91 267.13 60.09 260.94 52.84 251.09 42.22 235.38 29.82 219.41 19.73 203.75 12.79 195.57 9.84 193.34 9.48 193.16 12.04"/><path class="cls-1" d="M194.42,7.32a136.63,136.63,0,0,1,79,52.75l-5.92.09a150.78,150.78,0,0,0-74.34-50.9Z"/><path class="cls-5" d="M193.16,9.26v2.52a129.52,129.52,0,0,1,64.72,54.13l9.6-5.74"/><path class="cls-5" d="M193.16,11.77c.18.61.36,1.2.53,1.8a182.59,182.59,0,0,1,64.19,63.62"/><polyline class="cls-5" points="273.39 60.09 273.39 69.91 266.11 77.19 257.88 77.19 257.88 65.91"/><path class="cls-1" d="M222.92,57.56,235.6,44.88a4.73,4.73,0,0,0-4-5.41,4.29,4.29,0,0,0-1.43,0L218.75,50.9Z"/><path class="cls-6" d="M223,137.91a89.28,89.28,0,0,0,33.29,52.35l-2.12,5.18-12.94,5.64-12.94.24q-1.83-1.32-3.53-2.82c-9.92-8.9-13.31-20.87-14.59-28.59Q216.58,153.91,223,137.91Z"/><path class="cls-7" d="M207.32,234.72q1.8,2.75,3.62,5.49a4,4,0,0,1-.95,7.48q-1,4.5-2,9l9.8,14.39c.29,1.61.59,3.23.88,4.85a14.35,14.35,0,0,0,6.44-.53c.56-.19,6.93-2.4,9-9a14.26,14.26,0,0,0-.62-9.8,14.82,14.82,0,0,0-4.23-5.64Z"/><polygon class="cls-8" points="249 191.94 247.97 191.15 245.75 189.28 243.06 186.82 240.72 184.5 237.24 180.63 234.18 176.75 232.13 173.84 229.81 170.18 227.37 165.69 225.69 162.18 223.99 158.06 222.97 155.19 221.84 151.53 220.97 148.13 220.25 145.09 223.13 138.5 223.46 140.78 227.16 151.63 231.21 160.72 239.84 174.01 247.99 183.1 253.03 187.38 256.45 190.37 249 191.94"/><polygon class="cls-8" points="235.66 198.81 235.4 198.72 233.28 197 229.75 193.9 227.1 191.28 224.53 188.49 221.01 184.19 218.93 181.31 216.12 176.94 214.21 173.56 211.21 167.31 210.16 170.63 214.4 184.15 216.88 189.56 222.91 197.03 228.28 201.31 234.13 201.31 235.66 198.81"/><polygon class="cls-9" points="228.81 251.79 228.63 250.76 230.25 251.72 234.07 257.73 234.53 261.63 234.53 265.27 233.32 268.24 232.47 270.04 228.63 273.35 225.19 275.33 222.31 276.06 218.93 275.75 220.57 273.69 221.63 270.88 221.9 269.89 222.75 269.73 224.75 269.1 226.5 268.06 227.63 267 228.75 265.54 229.46 263.82 229.87 262.13 229.97 259.69 229.94 258.69 229.47 254.62 228.81 251.79"/><polygon class="cls-9" points="210.28 237.44 218.53 243.22 218.76 244.63 218.94 245.84 218.88 247.15 218.44 248.63 217.72 249.94 216.87 251 215.53 252.22 214.53 252.91 213.19 253.62 211.91 254.13 210.84 252.57 209.62 249.34 209.79 247.66 211.16 247.06 212.76 245.66 213.41 243.66 212.76 241.94 211.51 240.54 210.51 239.81 209.62 238.07 210.28 237.44"/><path class="cls-10" d="M249.13,192.05a77.86,77.86,0,0,1-28.87-47.33"/><path class="cls-10" d="M235.66,198.94a79.12,79.12,0,0,1-24-30.5"/><path class="cls-10" d="M217.52,242.27a6.48,6.48,0,0,1,1.42,3.81c.08,3.36-2.88,6.77-7.42,8.17"/><path class="cls-10" d="M228.61,251.11a25.69,25.69,0,0,1,.85,3.67c.53,3.39,1.33,8.55-1.58,12a9.65,9.65,0,0,1-6.25,3.16"/><path class="cls-6" d="M219.07,93.16l17.07-12.69a11.35,11.35,0,0,1,6.09.08c5.36,1.6,9.24,7.46,9.88,14.76a14.26,14.26,0,0,0,1.41,3c4.32,6.85,13.23,7.9,15.59,8.12l-21.23,15.53a37.86,37.86,0,0,1-14-12.41,33.43,33.43,0,0,1-2.12-3.66c-.34-1.47-2-7.83-7.83-11A14.54,14.54,0,0,0,219.07,93.16Z"/><polygon class="cls-8" points="263.85 109.77 262.71 109.64 261.06 109.36 259.43 108.86 258.5 108.5 256.68 107.58 255.41 106.78 254.47 106.06 252.97 104.69 251.88 103.47 250.81 101.98 250.26 101.13 249.66 99.64 248.13 95.75 247.88 94.41 247.41 92.95 247.03 92.11 246.22 90.33 245.53 89.14 244.53 88.06 243.66 87.03 242.31 85.91 240.72 84.97 239.35 84.42 238.88 84.28 237.44 84.03 235.9 83.77 234.43 83.78 231.66 84 233.6 82.34 236.47 80.56 239.38 80.27 244.75 81.67 247.13 83.58 248.94 85.81 250.38 88.47 251.19 90.88 251.66 93.78 252.31 95.94 253.24 97.95 254.69 99.78 256.06 101.16 257.81 102.34 261.06 104.42 264.12 105.47 267.21 106.31 268.43 106.58 266.36 108.39 264.43 109.8 263.85 109.77"/><polygon class="cls-8" points="253.56 117.61 251.91 117.33 250.18 117.03 248.41 116.39 246.87 115.7 245.49 114.91 243.15 113.09 241.38 111.22 240.41 109.92 239.59 108.55 239.03 107.11 238.43 105.58 237.88 104.2 237.59 103.44 237.28 101.97 236.87 100.64 236.5 99.69 236.09 98.83 235.62 97.94 235.06 97.08 233.88 95.53 232.5 94.19 231.19 93.25 230.01 92.61 228.96 92.19 227.63 91.83 225.51 91.48 223.13 91.53 220.56 91.78 218.91 92.91 219.59 93.39 221.25 93.98 224.25 94.92 226.56 96.58 228.56 98.86 230.21 101.53 231.49 104.81 231.97 106.28 233.13 108.31 237.03 113.56 240 116.52 245.6 120.61 248.03 121.78 250.91 119.81 253.56 117.61"/><path class="cls-10" d="M264.42,109.8a17.26,17.26,0,0,1-6-1.33A17.79,17.79,0,0,1,250.2,101l-2.1-5.33a15.3,15.3,0,0,0-1.82-5.23,14.53,14.53,0,0,0-3.75-4.4C238,82.66,232.12,84,231.1,84.2"/><path class="cls-10" d="M253.89,117.52a17,17,0,0,1-6-1.33,17.72,17.72,0,0,1-8.22-7.44l-2.1-5.32a15,15,0,0,0-1.83-5.24A14.25,14.25,0,0,0,232,93.8c-4.56-3.4-10.4-2.11-11.43-1.86"/><path class="cls-11" d="M219.07,93.16l17.07-12.69a11.35,11.35,0,0,1,6.09.08c5.36,1.6,9.24,7.46,9.88,14.76a14.26,14.26,0,0,0,1.41,3c4.32,6.85,13.23,7.9,15.59,8.12l-21.23,15.53a37.86,37.86,0,0,1-14-12.41,33.43,33.43,0,0,1-2.12-3.66c-.34-1.47-2-7.83-7.83-11A14.54,14.54,0,0,0,219.07,93.16Z"/><path class="cls-11" d="M223,137.91a89.28,89.28,0,0,0,33.29,52.35l-2.12,5.18-12.94,5.64-12.94.24q-1.83-1.32-3.53-2.82c-9.92-8.9-13.31-20.87-14.59-28.59Q216.58,153.91,223,137.91Z"/><path class="cls-7" d="M233.22,201.32a40.51,40.51,0,0,1,3.17-2.71A44.36,44.36,0,0,1,259.1,190a19.69,19.69,0,0,1,5.18,7.75,20.52,20.52,0,0,1,0,13.53,63.05,63.05,0,0,1-6.59,15.41A64.29,64.29,0,0,1,241.35,245l-15.3-24.84a25.46,25.46,0,0,0,7.06-4.94c2.42-2.41,6.28-6.24,5.17-9.75C238.13,205,237.33,202.67,233.22,201.32Z"/><polygon class="cls-9" points="254.54 194.03 254.01 193.63 252.97 192.96 251.62 192.29 250.38 191.68 256.08 190.41 259.26 190.03 260.68 191.18 263.37 195.66 264.35 197.96 265.31 202.24 265.31 205.63 265.31 208.44 264.42 210.93 263.67 213.38 262.5 216.75 258.89 224.62 253.81 232.5 247.38 239.78 241.84 244.74 241.34 244.19 240.72 235.85 241.5 235.38 244.75 232.97 247.6 230.28 250.32 227.25 252.21 224.56 254.32 220.91 256.48 216 257.65 212.19 258.5 208.19 258.74 205.15 258.74 202.88 258.3 200.06 257.56 197.94 256.23 195.66 254.54 194.03"/><polygon class="cls-9" points="237.81 197.72 238.47 197.91 239.63 198.24 240.6 198.94 241.78 200.32 242.35 201.56 242.78 203.18 242.93 204.56 243.03 205.96 242.85 208.9 242.56 210.71 241.97 212.82 241.09 214.88 239.84 217.03 238.63 218.66 236.82 220.65 235.65 221.74 233.56 223.38 230.09 217.75 233.03 215.47 236.93 210.81 238.5 207.97 238.22 205.26 236.28 202.84 233.81 201.31 235.38 199.43 237.81 197.72"/><path class="cls-10" d="M250.49,191.88a11.68,11.68,0,0,1,4.93,3c6.49,6.67,2.15,20.45-2,27.81A38.06,38.06,0,0,1,240.63,236"/><path class="cls-10" d="M237.52,197.77a5.48,5.48,0,0,1,2.64.84c3.92,2.55,2.75,10,2.56,11.21-1.2,7.65-7.35,12.3-9.46,13.75"/><path class="cls-11" d="M233.22,201.32a40.51,40.51,0,0,1,3.17-2.71A44.36,44.36,0,0,1,259.1,190a19.69,19.69,0,0,1,5.18,7.75,20.52,20.52,0,0,1,0,13.53,63.05,63.05,0,0,1-6.59,15.41A64.29,64.29,0,0,1,241.35,245l-15.3-24.84a25.46,25.46,0,0,0,7.06-4.94c2.42-2.41,6.28-6.24,5.17-9.75C238.13,205,237.33,202.67,233.22,201.32Z"/><path class="cls-12" d="M241.35,245l-9.87-6.56,3.72-5.92,5.41,3.45C240.86,239,241.1,242,241.35,245Z"/><path class="cls-11" d="M207.32,234.72q1.8,2.75,3.62,5.49a4,4,0,0,1-.95,7.48q-1,4.5-2,9l9.8,14.39c.29,1.61.59,3.23.88,4.85a14.35,14.35,0,0,0,6.44-.53c.56-.19,6.93-2.4,9-9a14.26,14.26,0,0,0-.62-9.8,14.82,14.82,0,0,0-4.23-5.64Z"/><path class="cls-6" d="M240.61,235.94l-14-23.65a13,13,0,0,0-6.7-1.32c-3.78.28-6.26,2.24-8.12,3.69a19.4,19.4,0,0,0-7.5,11.75,17.67,17.67,0,0,0,.17,7.06l24.18,17.64a14.68,14.68,0,0,1,1-9.7c.29-.59,3.52-7,8.12-6.62a5.52,5.52,0,0,1,2.91,1.15c.25,3,.49,6,.74,9"/><polygon class="cls-8" points="240.16 235.63 237.13 234.56 234.59 235.56 231.74 237.53 230.75 239.22 229.19 242.28 228.53 244.97 228.53 248.63 228.82 250.63 223.97 247.72 224.03 246.44 223.97 244.78 224.09 243.06 224.53 240.78 224.97 239.5 225.38 237.91 226.51 235.76 227.47 234.38 228.49 233.19 230.07 231.99 231.47 231.34 232.71 230.94 233.71 230.72 235.04 230.56 237.13 230.56 238.34 232.1 240.16 235.63"/><polygon class="cls-8" points="228.13 215.56 226.1 215.47 223.84 215.66 221.34 216.25 219.72 216.88 217.59 218 215.93 219.19 214.25 220.74 213.15 221.99 211.81 223.81 210.97 225.25 210.38 226.5 209.82 228.13 209.46 229.69 209.19 231.75 209.25 234.22 209.44 236.94 204.43 233.47 203.78 227.72 205.57 222.54 208.09 218.21 213.15 213.41 217.78 211.31 222.43 210.93 225.88 211.97 226.81 212.66 228.13 215.56"/><path class="cls-10" d="M228.55,215.6a16.8,16.8,0,0,0-6.62.48c-8,2.24-11.24,9.68-11.47,10.24a18.16,18.16,0,0,0-.83,11"/><path class="cls-10" d="M237.52,230.74a11,11,0,0,0-6.44.78c-4.51,2.06-5.89,6.92-6.45,8.86a17.76,17.76,0,0,0-.44,7.5"/><path class="cls-11" d="M240.61,235.94l-14-23.65a13,13,0,0,0-6.7-1.32c-3.78.28-6.26,2.24-8.12,3.69a19.4,19.4,0,0,0-7.5,11.75,17.67,17.67,0,0,0,.17,7.06l24.18,17.64a14.68,14.68,0,0,1,1-9.7c.29-.59,3.52-7,8.12-6.62a5.52,5.52,0,0,1,2.91,1.15c.25,3,.49,6,.74,9"/><path class="cls-12" d="M221.38,269.35a3.65,3.65,0,0,1,.38,1.17c.31,2.3-1.84,4.81-4.27,5.68-.18.07-4,1.37-5.47-.73-1-1.47-.58-4.11,1.53-5.86l5.24-1.58Z"/><path class="cls-10" d="M139.88,281.82h14.61a176.39,176.39,0,0,0,18.09-1c5.86-.62,18.55-1.72,28.24-5.38,3.9-1.49,5.26-2.58,6.17-3.53,2.71-2.84,2.69-5.78,5.47-7.33a7.45,7.45,0,0,1,4.71-.7"/><path class="cls-7" d="M66.68,42.25c-3.66.36-8.28,1.47-10.78,5a11.63,11.63,0,0,0-1.75,7.25c.1,5.27-1.79,13.4-10.5,25.94q4,6.56,7.94,13.14l8.81,1.15c.35-1.81,7.54-39.57,7.54-39.57h0l.06-.31Z"/><path class="cls-6" d="M56.79,137.91a89.79,89.79,0,0,1-14,32.22A89.21,89.21,0,0,1,23.5,190.25l2.11,5.18,12.94,5.64,12.94.24A41.13,41.13,0,0,0,55,198.5c9.91-8.9,13.3-20.87,14.58-28.59Q63.19,153.91,56.79,137.91Z"/><path class="cls-7" d="M72.45,234.72q-1.78,2.75-3.62,5.49a4,4,0,0,0,1,7.48q1,4.5,2,9L62,271.05c-.3,1.61-.6,3.24-.89,4.86a14.3,14.3,0,0,1-6.43-.53c-.57-.19-6.93-2.4-9-9a14.2,14.2,0,0,1,.61-9.8,14.82,14.82,0,0,1,4.23-5.64Z"/><polygon class="cls-9" points="43.4 80.27 45.44 83.97 47.72 83.83 48.34 83.08 49.44 81.88 51.02 79.88 52.23 78.08 53.7 75.33 54.92 72.42 56.23 68.06 57.26 63.41 58.35 56.52 58.77 51.23 58.81 50.2 60.33 44.33 59.38 44.47 56.87 45.63 54.6 49.38 53.98 51.98 54.16 54.6 54.02 56.91 52.81 62.41 51.67 66.47 50.34 69.22 45.67 77.61 43.4 80.27"/><polygon class="cls-8" points="30.79 191.94 31.8 191.15 34.03 189.28 36.73 186.82 39.05 184.5 42.53 180.63 45.6 176.75 47.65 173.84 49.97 170.18 52.41 165.69 54.09 162.18 55.78 158.06 56.81 155.19 57.94 151.53 58.81 148.13 59.52 145.09 56.66 138.5 56.31 140.78 52.63 151.63 48.56 160.72 39.94 174.01 31.8 183.1 26.75 187.38 23.32 190.37 30.79 191.94"/><polygon class="cls-8" points="44.12 198.81 44.38 198.72 46.51 197 50.02 193.9 52.67 191.28 55.24 188.49 58.77 184.19 60.85 181.31 63.66 176.94 65.58 173.56 68.58 167.31 69.61 170.63 65.39 184.15 62.91 189.56 56.87 197.03 51.49 201.31 45.66 201.31 44.12 198.81"/><polygon class="cls-9" points="50.97 251.79 51.13 250.76 49.52 251.72 45.7 257.73 45.23 261.63 45.23 265.27 46.45 268.24 47.31 270.04 51.13 273.35 54.59 275.33 57.47 276.06 60.84 275.75 59.2 273.69 58.16 270.88 57.88 269.89 57.02 269.73 55.03 269.1 53.28 268.06 52.16 267 51.03 265.54 50.33 263.82 49.91 262.13 49.8 259.69 49.84 258.69 50.3 254.62 50.97 251.79"/><polygon class="cls-9" points="69.5 237.44 61.26 243.22 61.02 244.63 60.84 245.84 60.91 247.15 61.34 248.63 62.06 249.94 62.91 251 64.25 252.22 65.25 252.91 66.59 253.62 67.86 254.13 68.94 252.57 70.17 249.34 69.98 247.66 68.61 247.06 67.02 245.66 66.38 243.66 67.02 241.94 68.27 240.54 69.27 239.81 70.17 238.07 69.5 237.44"/><path class="cls-10" d="M47.84,83.58a30.15,30.15,0,0,0,2.54-2.86C54.84,75,56.1,69.1,57.31,63.07a75.33,75.33,0,0,0,1.5-12.88l1.66-6.46"/><path class="cls-10" d="M30.65,192.05A78.05,78.05,0,0,0,48.7,172.22a77.82,77.82,0,0,0,10.82-27.5"/><path class="cls-10" d="M44.11,198.94a79.21,79.21,0,0,0,18.36-20.06,77.49,77.49,0,0,0,5.59-10.44"/><path class="cls-10" d="M62.26,242.27a6.48,6.48,0,0,0-1.42,3.81c-.08,3.36,2.87,6.77,7.43,8.17"/><path class="cls-10" d="M51.18,251.11a25.75,25.75,0,0,0-.87,3.67c-.52,3.39-1.31,8.55,1.59,12A9.73,9.73,0,0,0,58.15,270"/><path class="cls-11" d="M66.68,42.25c-3.66.36-8.28,1.47-10.78,5a11.63,11.63,0,0,0-1.75,7.25c.1,5.27-1.79,13.4-10.5,25.94q4,6.56,7.94,13.14l8.81,1.15c.35-1.81,7.54-39.57,7.54-39.57h0l.06-.31Z"/><path class="cls-6" d="M60.72,93.16,43.65,80.47a11.34,11.34,0,0,0-6.09.08c-5.36,1.6-9.24,7.46-9.88,14.76a15.36,15.36,0,0,1-1.41,3c-4.27,6.85-13.27,7.9-15.59,8.11L31.9,121.9a37.75,37.75,0,0,0,14-12.4,36.84,36.84,0,0,0,2.1-3.66c.34-1.47,2-7.83,7.81-11A14.3,14.3,0,0,1,60.72,93.16Z"/><polygon class="cls-8" points="15.94 109.77 17.07 109.64 18.73 109.36 20.36 108.86 21.27 108.5 23.11 107.58 24.38 106.78 25.32 106.06 26.82 104.69 27.89 103.47 28.98 101.98 29.52 101.13 30.11 99.64 31.66 95.75 31.89 94.41 32.37 92.95 32.73 92.11 33.56 90.33 34.26 89.14 35.24 88.06 36.13 87.03 37.48 85.91 39.05 84.97 40.42 84.42 40.9 84.28 42.34 84.03 43.88 83.77 45.35 83.78 48.12 84 46.17 82.34 43.31 80.56 40.41 80.27 35.03 81.67 32.65 83.58 30.84 85.81 29.41 88.47 28.59 90.88 28.11 93.78 27.46 95.94 26.55 97.95 25.09 99.78 23.73 101.16 21.95 102.34 18.7 104.42 15.65 105.47 12.56 106.31 11.35 106.58 13.43 108.39 15.36 109.8 15.94 109.77"/><polygon class="cls-8" points="26.23 117.61 27.86 117.33 29.61 117.03 31.36 116.39 32.91 115.7 34.3 114.91 36.63 113.09 38.41 111.22 39.38 109.92 40.19 108.55 40.74 107.11 41.35 105.58 41.9 104.2 42.2 103.44 42.51 101.97 42.91 100.64 43.27 99.69 43.69 98.83 44.16 97.94 44.72 97.08 45.91 95.53 47.28 94.19 48.59 93.25 49.77 92.61 50.83 92.19 52.16 91.83 54.27 91.48 56.66 91.53 59.22 91.78 60.87 92.91 60.19 93.39 58.53 93.98 55.53 94.92 53.22 96.58 51.22 98.86 49.58 101.53 48.3 104.81 47.8 106.28 46.66 108.31 42.74 113.56 39.77 116.52 34.17 120.61 31.75 121.78 28.88 119.81 26.23 117.61"/><path class="cls-10" d="M15.36,109.8a17.26,17.26,0,0,0,6-1.33,17.74,17.74,0,0,0,8.2-7.47l2.12-5.34a15.3,15.3,0,0,1,1.82-5.23A14.53,14.53,0,0,1,37.25,86c4.54-3.4,10.4-2.1,11.43-1.86"/><path class="cls-10" d="M25.88,117.52a16.94,16.94,0,0,0,6-1.33,17.8,17.8,0,0,0,8.23-7.44l2.09-5.32A15.68,15.68,0,0,1,44,98.19a14.51,14.51,0,0,1,3.75-4.39c4.56-3.4,10.4-2.11,11.43-1.86"/><path class="cls-11" d="M60.72,93.16,43.65,80.47a11.34,11.34,0,0,0-6.09.08c-5.36,1.6-9.24,7.46-9.88,14.76a15.36,15.36,0,0,1-1.41,3c-4.27,6.85-13.27,7.9-15.59,8.11L31.9,121.9a37.75,37.75,0,0,0,14-12.4,36.84,36.84,0,0,0,2.1-3.66c.34-1.47,2-7.83,7.81-11A14.3,14.3,0,0,1,60.72,93.16Z"/><path class="cls-11" d="M56.79,137.91a89.79,89.79,0,0,1-14,32.22A89.21,89.21,0,0,1,23.5,190.25l2.11,5.18,12.94,5.64,12.94.24A41.13,41.13,0,0,0,55,198.5c9.91-8.9,13.3-20.87,14.58-28.59Q63.19,153.91,56.79,137.91Z"/><path class="cls-7" d="M46.56,201.32a40.65,40.65,0,0,0-3.18-2.71A44.33,44.33,0,0,0,20.68,190a19.69,19.69,0,0,0-5.18,7.75,20.39,20.39,0,0,0,0,13.53A63.44,63.44,0,0,0,38.43,245l15.3-24.84a25.46,25.46,0,0,1-7.06-4.94c-2.44-2.41-6.29-6.24-5.18-9.75C41.65,205,42.45,202.67,46.56,201.32Z"/><polygon class="cls-9" points="25.23 194.03 25.75 193.63 26.8 192.96 28.16 192.29 29.41 191.68 23.7 190.41 20.52 190.03 19.09 191.18 16.41 195.66 15.44 197.96 14.46 202.24 14.46 205.63 14.46 208.44 15.37 210.93 16.11 213.38 17.27 216.75 20.89 224.62 25.96 232.5 32.41 239.78 37.94 244.74 38.44 244.19 39.05 235.85 38.27 235.38 35.02 232.97 32.17 230.28 29.45 227.25 27.57 224.56 25.45 220.91 23.3 216 22.13 212.19 21.29 208.19 21.05 205.15 21.05 202.88 21.48 200.06 22.23 197.94 23.55 195.66 25.23 194.03"/><polygon class="cls-9" points="41.97 197.72 41.31 197.91 40.16 198.24 39.17 198.94 37.99 200.32 37.42 201.56 36.98 203.18 36.85 204.56 36.74 205.96 36.92 208.9 37.23 210.71 37.81 212.82 38.69 214.88 39.94 217.03 41.15 218.66 42.95 220.65 44.13 221.74 46.23 223.38 49.7 217.75 46.73 215.47 42.85 210.81 41.27 207.97 41.55 205.26 43.51 202.84 45.97 201.31 44.41 199.43 41.97 197.72"/><path class="cls-10" d="M29.29,191.88a11.65,11.65,0,0,0-4.94,3c-6.47,6.67-2.13,20.45,2,27.81A38.09,38.09,0,0,0,39.15,236"/><path class="cls-10" d="M42.25,197.77a5.63,5.63,0,0,0-2.64.84c-3.92,2.55-2.75,10-2.56,11.21,1.2,7.65,7.35,12.3,9.45,13.75"/><path class="cls-11" d="M46.56,201.32a40.65,40.65,0,0,0-3.18-2.71A44.33,44.33,0,0,0,20.68,190a19.69,19.69,0,0,0-5.18,7.75,20.39,20.39,0,0,0,0,13.53A63.44,63.44,0,0,0,38.43,245l15.3-24.84a25.46,25.46,0,0,1-7.06-4.94c-2.44-2.41-6.29-6.24-5.18-9.75C41.65,205,42.45,202.67,46.56,201.32Z"/><path class="cls-11" d="M72.45,234.72q-1.78,2.75-3.62,5.49a4,4,0,0,0,1,7.48q1,4.5,2,9L62,271.05c-.3,1.61-.6,3.24-.89,4.86a14.3,14.3,0,0,1-6.43-.53c-.57-.19-6.93-2.4-9-9a14.2,14.2,0,0,1,.61-9.8,14.82,14.82,0,0,1,4.23-5.64Z"/><path class="cls-12" d="M38.43,245l9.87-6.56-3.72-5.92L39.17,236C38.93,239,38.68,242,38.43,245Z"/><path class="cls-4" d="M222.66,47.11l-187,204.76A5.07,5.07,0,0,0,37.13,256a5,5,0,0,0,4,1.25L225,55.58C224.24,52.75,223.44,49.93,222.66,47.11Z"/><path class="cls-6" d="M39.18,235.94l14-23.65a12.91,12.91,0,0,1,6.7-1.32c3.77.28,6.25,2.24,8.12,3.69a19.52,19.52,0,0,1,7.5,11.75,18,18,0,0,1-.19,7.06L51.18,251.11a14.8,14.8,0,0,0-1-9.7c-.3-.59-3.53-7-8.12-6.62a5.46,5.46,0,0,0-2.91,1.15l-.75,9"/><polygon class="cls-8" points="39.62 235.63 42.66 234.56 45.2 235.56 48.05 237.53 49.02 239.22 50.59 242.28 51.23 244.97 51.23 248.63 50.95 250.63 55.8 247.72 55.76 246.44 55.8 244.78 55.69 243.06 55.26 240.78 54.81 239.5 54.41 237.91 53.27 235.76 52.31 234.38 51.3 233.19 49.7 231.99 48.3 231.34 47.08 230.94 46.06 230.72 44.73 230.56 42.65 230.56 41.45 232.1 39.62 235.63"/><polygon class="cls-8" points="51.65 215.56 53.67 215.47 55.92 215.66 58.44 216.25 60.06 216.88 62.19 218 63.85 219.19 65.53 220.74 66.64 221.99 67.97 223.81 68.81 225.25 69.39 226.5 69.95 228.13 70.33 229.69 70.58 231.75 70.53 234.22 70.33 236.94 75.34 233.47 75.98 227.72 74.2 222.54 71.69 218.21 66.64 213.41 62.01 211.31 57.34 210.93 53.9 211.97 52.98 212.66 51.65 215.56"/><path class="cls-10" d="M51.24,215.6a16.78,16.78,0,0,1,6.61.48c8,2.24,11.24,9.68,11.46,10.24a17.94,17.94,0,0,1,.82,11"/><path class="cls-10" d="M42.25,230.74a11.06,11.06,0,0,1,6.45.78c4.52,2.06,5.89,6.92,6.44,8.86a17.44,17.44,0,0,1,.44,7.5"/><path class="cls-11" d="M39.18,235.94l14-23.65a12.91,12.91,0,0,1,6.7-1.32c3.77.28,6.25,2.24,8.12,3.69a19.52,19.52,0,0,1,7.5,11.75,18,18,0,0,1-.19,7.06L51.18,251.11a14.8,14.8,0,0,0-1-9.7c-.3-.59-3.53-7-8.12-6.62a5.46,5.46,0,0,0-2.91,1.15l-.75,9"/><path class="cls-12" d="M58.4,269.35a3.65,3.65,0,0,0-.38,1.17c-.31,2.3,1.84,4.81,4.27,5.68.18.07,4,1.37,5.48-.73,1-1.47.57-4.11-1.53-5.86L61,268Z"/><path class="cls-6" d="M211.58,254.39c-1.07-2.2-2-4.35-2.73-6.35-3.37-3.24-5.51-3.52-6.81-3.18s-1.52,1.52-4.58,3.44c0,0-2.12,1.47-3.88,2.62-2.93,1.93-17.6,5-17.6,5a58.27,58.27,0,0,1-7.46.69c-3.86.18-11.72.38-28.63.38s-24.77-.2-28.63-.38a58.58,58.58,0,0,1-7.48-.69s-14.64-3.07-17.57-5c-1.76-1.15-3.88-2.62-3.88-2.62-3-1.92-3.3-3.1-4.58-3.44S74.3,244.8,71,248c-.76,2-1.67,4.15-2.74,6.35a73.75,73.75,0,0,1-9.62,14.83,5.89,5.89,0,0,1,4.86,1.14,5.76,5.76,0,0,1,1.84,5.74c1.79.72,4.23,1.69,7.16,2.73l14.64,4.59a228.26,228.26,0,0,0,25.63,3.44,230.24,230.24,0,0,0,27.17.48,228.66,228.66,0,0,0,52.81-3.92l14.64-4.59c2.93-1,5.37-2,7.14-2.73a5.77,5.77,0,0,1,1.86-5.74,5.89,5.89,0,0,1,4.86-1.14A72.89,72.89,0,0,1,211.58,254.39Z"/><polygon class="cls-8" points="220.88 268.61 217.46 263.88 215.44 263.81 213.91 264.04 212.88 264.39 211.75 265.07 210.75 266.1 210.03 267.19 209.16 268.79 207.75 271.04 206.47 272.44 204.82 273.62 203.78 274.19 201.46 275.21 198.43 276.29 195.34 277.2 190.99 278.24 185.76 279.25 175.44 280.56 166.44 281.36 160.63 281.7 157.49 281.73 151.35 281.81 139.9 281.81 139.88 281.81 128.43 281.81 122.3 281.73 119.14 281.7 113.34 281.36 104.34 280.56 94.02 279.25 88.8 278.24 84.44 277.2 81.34 276.29 78.33 275.21 76 274.19 74.95 273.62 73.31 272.44 72.02 271.04 70.61 268.79 69.75 267.19 69.03 266.1 68.03 265.07 66.89 264.39 65.86 264.04 64.33 263.81 62.31 263.88 58.9 268.61 58.34 269.5 60.77 269.31 63.02 269.82 64.16 271.25 65.06 273 65.16 275.1 65.16 276.13 68.81 277.38 87.08 283.4 99.75 285.48 115.22 287.01 137.78 287.39 139.89 287.31 141.99 287.39 164.56 287.01 180.03 285.48 192.69 283.4 210.96 277.38 214.63 276.13 214.63 275.1 214.72 273 215.63 271.25 216.76 269.82 219.01 269.31 221.44 269.5 220.88 268.61"/><polygon class="cls-8" points="209.21 248.66 207.81 246.94 205.47 245.63 202.94 244.56 200.88 245 200.1 246.22 198.15 247.53 195.51 249.38 192.41 251.88 185.63 253.44 178.81 255.19 172.88 256.29 165.28 256.67 156.63 256.63 139.89 256.98 123.14 256.63 114.5 256.67 106.91 256.29 100.97 255.19 94.14 253.44 87.38 251.88 84.27 249.38 81.64 247.53 79.67 246.22 78.91 245 76.83 244.56 74.31 245.63 71.97 246.94 70.56 248.66 69.48 251.6 71.03 251.38 73.58 251 75.8 251 77.83 251.31 79.13 251.69 83.75 254.34 87.94 256.39 91.81 258 96.28 259.64 101.61 260.95 105.03 261.62 109.31 262.19 117.56 262.81 125.56 263.21 133.56 263.21 139.89 263.02 146.21 263.21 154.22 263.21 162.22 262.81 170.47 262.19 174.75 261.62 178.16 260.95 183.5 259.64 187.97 258 191.84 256.39 196.03 254.34 200.66 251.69 201.96 251.31 203.99 251 206.19 251 208.75 251.38 210.29 251.6 209.21 248.66"/><path class="cls-11" d="M211.58,254.39c-1.07-2.2-2-4.35-2.73-6.35-3.37-3.24-5.51-3.52-6.81-3.18s-1.52,1.52-4.58,3.44c0,0-2.12,1.47-3.88,2.62-2.93,1.93-17.6,5-17.6,5a58.27,58.27,0,0,1-7.46.69c-3.86.18-11.72.38-28.63.38s-24.77-.2-28.63-.38a58.58,58.58,0,0,1-7.48-.69s-14.64-3.07-17.57-5c-1.76-1.15-3.88-2.62-3.88-2.62-3-1.92-3.3-3.1-4.58-3.44S74.3,244.8,71,248c-.76,2-1.67,4.15-2.74,6.35a73.75,73.75,0,0,1-9.62,14.83,5.89,5.89,0,0,1,4.86,1.14,5.76,5.76,0,0,1,1.84,5.74c1.79.72,4.23,1.69,7.16,2.73l14.64,4.59a228.26,228.26,0,0,0,25.63,3.44,230.24,230.24,0,0,0,27.17.48,228.66,228.66,0,0,0,52.81-3.92l14.64-4.59c2.93-1,5.37-2,7.14-2.73a5.77,5.77,0,0,1,1.86-5.74,5.89,5.89,0,0,1,4.86-1.14A72.89,72.89,0,0,1,211.58,254.39Z"/><path class="cls-7" d="M213.11,42.25c3.64.36,8.27,1.47,10.77,5a11.77,11.77,0,0,1,1.75,7.25c-.1,5.27,1.79,13.4,10.5,25.94l-7.94,13.17-8.81,1.15c-.36-1.81-7.53-39.57-7.53-39.57h0l-.06-.31Z"/><polygon class="cls-9" points="236.38 80.27 234.34 83.97 232.06 83.83 231.44 83.08 230.34 81.88 228.76 79.88 227.56 78.08 226.07 75.33 224.85 72.42 223.56 68.06 222.53 63.41 221.43 56.52 221 51.23 220.96 50.2 219.46 44.33 220.41 44.47 222.91 45.63 225.18 49.38 225.78 51.98 225.63 54.6 225.76 56.91 226.96 62.41 228.1 66.47 229.43 69.22 234.1 77.61 236.38 80.27"/><path class="cls-10" d="M231.94,83.58a28.68,28.68,0,0,1-2.54-2.86C225,75,223.69,69.1,222.46,63.07A76.29,76.29,0,0,1,221,50.2l-1.65-6.46"/><path class="cls-11" d="M213.11,42.25c3.64.36,8.27,1.47,10.77,5a11.77,11.77,0,0,1,1.75,7.25c-.1,5.27,1.79,13.4,10.5,25.94l-7.94,13.17-8.81,1.15c-.36-1.81-7.53-39.57-7.53-39.57h0l-.06-.31Z"/><g id="Layer_1" data-name="Layer 1"><g id="_165938928" data-name=" 165938928"><path id="korona" class="cls-13" d="M139.64,40.27c-16.7-.1-25.8,2.59-31.8,4.5l-1.2-5.6,2.3-.7-2.5-12.8-8.8-2.2-2.8-15.6,20.7-4.8,8,8.1,1.3,11,6.2-.6-2.1-4.2L127.64.56h24.2l-1.4,16.8-1.89,4.2,6.2.61,1.3-11,8-8.11,20.7,4.8-2.7,15.7-8.8,2.21-2.61,12.79,2.4.8-1.2,5.41C166.85,43.27,156.44,40.36,139.64,40.27Z"/><polygon class="cls-3" points="98.19 23.57 117.75 19.27 115.55 2.85 123.55 11.16 124.58 22.09 106.34 25.96 98.19 23.57"/><polygon class="cls-3" points="164.04 3.06 162.56 19.21 181.97 23.48 173.03 26.21 157.81 22.43 154.75 22.16 156.04 11.16 164.04 3.06"/><polygon class="cls-2" points="150.49 16.86 128.91 17.02 130.72 21.36 148.54 21.57 150.49 16.86"/><polygon class="cls-2" points="98.02 23.32 117.45 19.27 121.77 22.14 106.55 25.43 98.58 23.66 98.02 23.32"/><polygon class="cls-2" points="162.81 19.04 181.97 23.25 173 25.71 161.41 23 158.01 22.23 161.94 19.52 162.81 19.04"/><path id="linii_korony" data-name="linii korony" class="cls-5" d="M106.55,25.77a125.32,125.32,0,0,1,66.59.2m-65.3,6.2a116.63,116.63,0,0,1,31.8-4.2,116.33,116.33,0,0,1,32.3,4.3m-63.4,6.4a115.54,115.54,0,0,1,31-4,113.68,113.68,0,0,1,31.4,4.2m-74.3-23.1,20-4.5,7.6,6.2m-26.4,6.1,20.2-4.3,4.6,3m-10.9,2.1-6.9-2.5-1.3-7.2m5.6-2L108,5.17m9.9,14.2-2.4-16.2m7.9,25.7-.8-6.31m9.5,12-.4-6.29m-15.1,8.2-.9-6.2m24.1-2.3v-6.6m43-5.5L163,11.37l-7.7,6m26.5,6.19-19.5-4.39-5.4,3.2m11,2,6.9-2.5,1.2-7.2m-5.5-2,1.1-7.7m-9.2,14.2,1.7-16.1m-8,25.8.8-6.31m-9.4,12,.4-6.29m14.8,8.39.9-6.2M139.85,28V21.39m2.6-.29,1.3-4.2V9m-7.2-.31V1m-7.9,8H151m-21.61,7.89h21"/><path id="shchyt" class="cls-14" d="M139.85,40.27c9.2,0,15,.29,24.4,2.4s20.5,7.7,26.39,7.7a9.28,9.28,0,0,0,6.2-2.2,6.17,6.17,0,0,0,2.4-5.4c-.1-2.41-3.5-2.71,0-2.71,3.1,0,4.5,2.41,5,4.41a7.11,7.11,0,0,1,7.1-4.8c4.7,0,6.2,4.6,6.5,7.5.2,2.3,5.9,7.8,6.4,8.3s2.9,2.7,3.9,2a6.14,6.14,0,0,1,3.3-1.1c4.6,0,7.4,2.6,7.4,6.6a5.83,5.83,0,0,1-5.44,6.19,5.23,5.23,0,0,1-.56,0,4.9,4.9,0,0,1-4.8-5v-.09a3.93,3.93,0,0,1,3.9-3.59c3.8,0,3.5,4.9,1.9,5.09,1.6-.3,1.8-5.09-1.9-5.09-1.3,0-2.4.5-3.9,2.4a15.52,15.52,0,0,0-2.8,6.3C224,74.37,223,96,223,96c3-1.7,6.19-3.2,3.6-8,1.4.5,3.4,1.19,4,3.3s-.1,3.2-1.1,5.3c1.1-.4,3.3.9,3.5,2.9a2.68,2.68,0,0,1-2.23,3.06l-.38,0c-1.3,0-2.2-.7-2.2-1.6s.2-1.3.7-1.4c.9-.1.2-.4-.39-.5a3.72,3.72,0,0,0-4.34,3,3.08,3.08,0,0,0-.06.61c2.3.6,3.7,2,3.9,2.9.6,2.2-1.9.3-3.4,2.2a5.12,5.12,0,0,0-1.3,3.5c0,.9.1,2.4,1.39,3a2.38,2.38,0,0,0,3.5-2.3c-.1-2.6,2.4-4.7,4.9-4.81a5.48,5.48,0,0,1,5.7,5.26,3.23,3.23,0,0,1,0,.44,7.61,7.61,0,0,1-6.7,7.4c-5.5,1.2-5.8,12-8,14.9,1.4-.3,2.1-1.6,2.4-3a3.68,3.68,0,0,1,.8,3,5.82,5.82,0,0,1-3.6,4.2c0,.61-.1,1.7-.1,2.7.3,3.8,7.6,12.7,7.6,26.1s-7.7,34.7-34.3,50.1c-24,13.9-34.2,16.1-38.3,29.6a43.16,43.16,0,0,0-7.5-3.2c-1,1-1.9,2.5-3.4,6.61-1.5-.9-2.1-2.8-2.8-2.9-.5,0-3,4.5-5,6.7-2-2.2-4.4-6.7-4.9-6.7-.7,0-1.4,1.9-2.8,2.9-1.5-4-2.4-5.61-3.4-6.61a41.67,41.67,0,0,0-7.5,3.2c-4.1-13.5-14.3-15.8-38.3-29.6-26.6-15.4-34.3-36.6-34.3-50.1s7.3-22.3,7.6-26.1a18.76,18.76,0,0,0-.1-2.7,5.86,5.86,0,0,1-3.6-4.2,3.75,3.75,0,0,1,.8-3c.3,1.4.9,2.7,2.4,3-2.2-2.9-2.4-13.7-8-14.9a7.65,7.65,0,0,1-6.7-7.4,5.49,5.49,0,0,1,5.26-5.7h.44a5.1,5.1,0,0,1,4.9,4.8,2.39,2.39,0,0,0,2.17,2.58,2.36,2.36,0,0,0,1.33-.28c1.3-.6,1.4-2.1,1.4-3a5.16,5.16,0,0,0-1.3-3.5c-1.5-1.9-4,0-3.4-2.2.2-.8,1.6-2.3,3.9-2.9A3.63,3.63,0,0,0,52.22,99a4.67,4.67,0,0,0-.83.08c-.6.1-1.3.4-.4.5.4.1.7.5.7,1.4s-.9,1.6-2.2,1.6a2.72,2.72,0,0,1-2.62-2.83,2.45,2.45,0,0,1,0-.27c.2-1.9,2.4-3.3,3.5-2.9-1-2.1-1.8-3.2-1.1-5.3s2.7-2.8,4-3.3c-2.6,4.8.6,6.3,3.6,8,0,0-1.1-21.6-2.3-26.8a15.37,15.37,0,0,0-2.8-6.3c-1.5-1.9-2.6-2.4-3.9-2.4-3.7,0-3.6,4.8-1.9,5.1-1.6-.2-1.9-5.1,1.9-5.1a4,4,0,0,1,3.9,3.6,4.9,4.9,0,0,1-4.71,5.1H47a5.82,5.82,0,0,1-6-5.64A3.35,3.35,0,0,1,41,63c0-4,2.79-6.6,7.4-6.6a5.88,5.88,0,0,1,3.3,1.1c1.09.7,3.4-1.5,3.9-2s6.2-6.1,6.4-8.3c.3-2.91,1.8-7.5,6.5-7.5a7.2,7.2,0,0,1,7.09,4.8c.5-2,1.81-4.41,5-4.41,3.5,0,.1.3,0,2.7A6.64,6.64,0,0,0,83,48.2a9.27,9.27,0,0,0,6.19,2.2c6,0,17-5.5,26.4-7.7S130.64,40.27,139.85,40.27Z"/><path id="dekor_shchyta" data-name="dekor shchyta" class="cls-11" d="M126.05,40.86c6.2-.5,9.6,3.2,10,6.41a7.1,7.1,0,0,1-1.8,6.29c2.5-.29,4.89.6,5.6,2,.7-1.4,3.1-2.29,5.6-2a7,7,0,0,1-1.8-6.29c.5-3.21,4-6.91,10.2-6.41"/><path id="dekor_shchyta_0" data-name="dekor shchyta 0" class="cls-11" d="M115.15,47.36l1.6-.59.4,1.7m-13.31,1,1.7-.41-.4,1.41m12.3-5.41,1-.2.1,1m-12.2,1.91,1-.1v.9m57.21-1.2-1.61-.6-.39,1.7m13.39,1-1.69-.4.39,1.4m-12.3-5.4-1-.2-.1,1m12.1,1.9-1-.1v.9"/><path id="dekor_shchyta_1" data-name="dekor shchyta 1" class="cls-11" d="M134.14,53.66a6.37,6.37,0,0,1-3.8,1.6,4.21,4.21,0,0,1-4.39-4,1,1,0,0,0,0-.17A3.75,3.75,0,0,1,129.3,47a4.56,4.56,0,0,1,.64,0,2.71,2.71,0,0,1,2.9,2.5,1.5,1.5,0,0,1,0,.3,2.55,2.55,0,0,1-2.1,2.7c-1.1.1-1.9-.4-1.9-1.4a1.1,1.1,0,0,1,1-1.19h0"/><path id="dekor_shchyta_2" data-name="dekor shchyta 2" class="cls-11" d="M75.55,44.56c0,5.71,3.4,10.5,9,10.8s1.5-2.09,5.7-2.09,2.3,1.79.9,2.59c5.69.3,8.3-4.7,12.19-4.9a4.71,4.71,0,0,1-2.69,3.7c6.9,2.6,11.4-5.6,14.5-5.3-2.6,4.2,1.6,7.6,7.3,5.3a5,5,0,0,1-1.9-5.3,6.15,6.15,0,0,1,5.8-4.09c3.2-.1,5,1.29,5.9,2.7"/><path id="dekor_shchyta_3" data-name="dekor shchyta 3" class="cls-11" d="M57.75,60.66A13.2,13.2,0,0,0,55,56.86m6.3-2.2a18.59,18.59,0,0,0-2.4-2.2m.4,4.9a13.43,13.43,0,0,0-2.3-2.7m6.21-2.6a16.55,16.55,0,0,1-2.71-1.4m4.51-1.3a8.09,8.09,0,0,1-3.4-.7m5.8-4.4c-2.2,0-3.8,1.3-5.2,2.9m3.9-.5a7.74,7.74,0,0,0-4.1,1.3"/><polygon id="dekor_shchyta_4" data-name="dekor shchyta 4" class="cls-11" points="138.75 49.27 139.84 50.87 140.94 49.27 139.84 47.66 138.75 49.27"/><path id="_167179176" data-name=" 167179176" class="cls-15" d="M211.14,57.36H68.65v102.7a71.3,71.3,0,0,0,142.6,0v-.3C211.14,159.77,211.14,57.36,211.14,57.36Z"/><path id="dekor_shchyta_5" data-name="dekor shchyta 5" class="cls-11" d="M58.54,98.06a9,9,0,0,0-1.59-2"/><path id="dekor_shchyta_6" data-name="dekor shchyta 6" class="cls-11" d="M47.75,113.47a1.85,1.85,0,0,0-1.21-3.31,2.82,2.82,0,0,0-2.7,2.9h0a3.46,3.46,0,0,0,3.38,3.51h.22a4.33,4.33,0,0,0,4.1-4.19"/><path id="dekor_shchyta_7" data-name="dekor shchyta 7" class="cls-11" d="M45.65,116.26c4.2,3.1,8.5,0,10.2-2.6"/><path id="dekor_shchyta_8" data-name="dekor shchyta 8" class="cls-11" d="M47.65,120.26a6,6,0,0,0,1.4.1,13.15,13.15,0,0,0,11.2-6.5c2.4-4.3,2.7-5.8,2.6-11.3a12.39,12.39,0,0,1,1.7-7.3c.6-.9.7-1-.5-1a6.07,6.07,0,0,0-3.7,1.5,7,7,0,0,0-1.5,8.4,3.54,3.54,0,0,0-3.5-1.4"/><path id="dekor_shchyta_9" data-name="dekor shchyta 9" class="cls-11" d="M51.65,57.36c3.5,2.3,6.3,8,7.1,16,.9,10.5,1.09,17.3,2.09,22.1"/><path id="dekor_shchyta_10" data-name="dekor shchyta 10" class="cls-11" d="M65.34,188.36c-1.4,2.61-2.09,9.8-1.3,14.8m-2.4-34.59c0,7.9-6.4,10.1-5.6,24.4m24,16.5.3,2-1.4-.11m-1.2-5,.5,3-2.1-.1m5.5,2.4.6,1.3-1.1-.3m-21.3-28.8c.1,2,.5,4,2.6,3.5m-10.5-19.7A9.53,9.53,0,0,0,53,174c1.29,2.3.09-1.31,2.59-2.31m-.3-19.6c-.09,1.3.41,2.5,1.71,2.5-.21.8.4,1.7-1.3,3.6"/><path id="dekor_shchyta_11" data-name="dekor shchyta 11" class="cls-11" d="M56.15,139.36a6.57,6.57,0,0,0,5.5-.6c-3,1.9-.7,4-3.1,6.2a3.08,3.08,0,0,0,2.7-1c.6,4.3-3.8,4-3.2,8.4a2.62,2.62,0,0,0,2.9-1.3c1.6,7.2-6.4,9.7-7,15.3-.4,4.2,2,3.1,2.6,1.8s.3-3,.3-4.1c3,1.4,3.1.5,3.1-2.1a4.44,4.44,0,0,1,3.89-4.7c-1.19,6.3,2.2,9.4,2.2,15,.1,7.3-4.4,8.2-4.3,11,.1,2.3,2.3,2.9,2.3-3.1a5.63,5.63,0,0,1,2.7,2,5.75,5.75,0,0,1,3-1.4,14.81,14.81,0,0,1,1,6.1c-.1,2.6-1.8,4.5-3.1,6s-2.4,5.4-.8,5.5c2.9.1.2-4.3,3-8.6,1.9,3.3,3.6,5.7,3.3,9.8-.2,2.3-.8,6.4,1.6,7.4"/><path id="dekor_shchyta_12" data-name="dekor shchyta 12" class="cls-11" d="M55.75,121.06A19.74,19.74,0,0,1,51,122.37m4.8,1.3a20.66,20.66,0,0,1-3.5.9m4.1,1.5a19.55,19.55,0,0,1-3.4.8m4.1,1.5a21.59,21.59,0,0,1-3.4.7m4.5,1.5a11.77,11.77,0,0,1-4,.6m5.6,1.6a10.86,10.86,0,0,1-5,.4m7.9,1.2c-1.1,1-4.4,1.6-7.2.8"/><path id="dekor_shchyta_13" data-name="dekor shchyta 13" class="cls-11" d="M139.75,249.07c-1.9-1.8-5.11-7.1-6.31-9.4-1.1,0-1.69,1-4.6,1a8.88,8.88,0,0,0-4.9,1.2c-11.1-14.2-21.7-14.9-34.6-25.4-6.1-4.9-5.2-9.4-7.6-13.5s-6.4-3-8.3-4.6c1.9,1.5,5.9.4,8.3,4.6"/><path id="dekor_shchyta_14" data-name="dekor shchyta 14" class="cls-11" d="M145.64,53.66a6.42,6.42,0,0,0,3.8,1.6,4.22,4.22,0,0,0,4.4-4v-.17A3.74,3.74,0,0,0,150.49,47a4.68,4.68,0,0,0-.65,0,2.71,2.71,0,0,0-2.89,2.5c0,.1,0,.2,0,.3a2.57,2.57,0,0,0,2.11,2.7c1.1.1,1.89-.4,1.89-1.4a1.08,1.08,0,0,0-1-1.19h0"/><path id="dekor_shchyta_15" data-name="dekor shchyta 15" class="cls-11" d="M204.25,44.56c.19,5-3.4,10.6-9,10.91s-1.5-2.1-5.7-2.1-2.3,1.8-.9,2.6c-5.7.3-8.3-4.7-12.2-4.91a4.73,4.73,0,0,0,2.7,3.71c-6.9,2.59-11.4-5.6-14.5-5.3,2.6,4.2-1.6,7.59-7.3,5.3a5,5,0,0,0,1.9-5.3,6.17,6.17,0,0,0-5.81-4.1c-3.19-.1-5,1.3-5.89,2.7"/><path id="_165943176" data-name=" 165943176" class="cls-11" d="M139.85,237c.6,0,1.9.1,1.9,2s-.9,5.1-1.9,5.1-1.9-3.2-1.9-5.1S139.14,237,139.85,237Zm-8.1,6.1,2.1,3.3m13.9-3.3-2.11,3.3"/><path id="dekor_shchyta_16" data-name="dekor shchyta 16" class="cls-11" d="M221.75,60.66a13.13,13.13,0,0,1,2.69-3.8m-6.3-2.2a20,20,0,0,1,2.4-2.2m-.3,4.9a14.11,14.11,0,0,1,2.3-2.7m-6.2-2.6a16.07,16.07,0,0,0,2.7-1.4m-4.5-1.3a8.09,8.09,0,0,0,3.4-.7m-5.8-4.4c2.2,0,3.8,1.3,5.2,2.9m-3.9-.5a7.74,7.74,0,0,1,4.1,1.3"/><path id="dekor_shchyta_17" data-name="dekor shchyta 17" class="cls-11" d="M221.05,98.06a8.8,8.8,0,0,1,1.6-2"/><path id="dekor_shchyta_18" data-name="dekor shchyta 18" class="cls-11" d="M231.85,113.47a1.85,1.85,0,0,1,1.2-3.31,2.82,2.82,0,0,1,2.7,2.9h0a3.46,3.46,0,0,1-3.38,3.51h-.23a4.35,4.35,0,0,1-4.1-4.19"/><path id="dekor_shchyta_19" data-name="dekor shchyta 19" class="cls-11" d="M233.85,116.26c-4.2,3.1-8.5,0-10.2-2.6"/><path id="dekor_shchyta_20" data-name="dekor shchyta 20" class="cls-11" d="M231.85,120.26a6,6,0,0,1-1.4.1,13.12,13.12,0,0,1-11.2-6.5c-2.4-4.3-2.7-5.8-2.6-11.3a12.54,12.54,0,0,0-1.7-7.3c-.6-.9-.7-1,.5-1a6.12,6.12,0,0,1,3.7,1.5,7,7,0,0,1,1.5,8.4,3.52,3.52,0,0,1,3.5-1.4"/><path id="dekor_shchyta_21" data-name="dekor shchyta 21" class="cls-11" d="M228,57.56c-3.5,2.3-6.31,7.81-7.11,15.91-.89,10.5-1.1,17.3-2.1,22.09"/><path id="dekor_shchyta_22" data-name="dekor shchyta 22" class="cls-11" d="M199.55,209.47l-.3,2,1.39-.11m1.2-5-.5,3,2.1-.1m-5.5,2.4-.6,1.3,1.1-.3m21.31-28.8c-.11,2-.5,4-2.61,3.5m10.61-19.7a9.54,9.54,0,0,1-1.11,6.3c-1.3,2.3-.1-1.3-2.6-2.3m.3-19.6c.1,1.3-.4,2.5-1.7,2.5.2.8-.39,1.7,1.3,3.6m-9.69,30.2c1.39,2.6,2.1,9.8,1.3,14.8m2.39-34.6c0,7.9,6.4,10.1,5.61,24.4"/><path id="dekor_shchyta_23" data-name="dekor shchyta 23" class="cls-11" d="M223.35,139.36a6.56,6.56,0,0,1-5.5-.6c3,1.9.7,4,3.1,6.2a3.06,3.06,0,0,1-2.7-1c-.6,4.3,3.8,4,3.2,8.4a2.61,2.61,0,0,1-2.9-1.3c-1.6,7.2,6.4,9.7,7,15.3.4,4.2-2,3.1-2.6,1.8s-.3-3-.3-4.1c-3,1.4-3.1.5-3.1-2.1a4.45,4.45,0,0,0-3.9-4.7c1.2,6.3-2.2,9.4-2.2,15-.1,7.3,4.4,8.2,4.3,11-.1,2.3-2.3,2.9-2.3-3.1a5.63,5.63,0,0,0-2.7,2,5.75,5.75,0,0,0-3-1.4,14.81,14.81,0,0,0-1,6.1c.1,2.6,1.8,4.5,3.1,6s2.4,5.4.8,5.5c-2.9.1-.2-4.3-3-8.6-1.9,3.3-3.6,5.7-3.3,9.8.2,2.3.8,6.4-1.6,7.4"/><path id="dekor_shchyta_24" data-name="dekor shchyta 24" class="cls-11" d="M223.75,121.06a19.58,19.58,0,0,0,4.69,1.31m-4.8,1.3a21.16,21.16,0,0,0,3.5.9m-4,1.5a20,20,0,0,0,3.4.8m-4.2,1.5a22.06,22.06,0,0,0,3.4.7m-4.5,1.5a11.84,11.84,0,0,0,4,.6m-5.5,1.6a10.88,10.88,0,0,0,5,.4m-8,1.2c1.1,1,4.4,1.6,7.2.8"/><path id="dekor_shchyta_25" data-name="dekor shchyta 25" class="cls-11" d="M139.75,249.07c1.89-1.8,5.1-7.1,6.3-9.4,1.1,0,1.7,1,4.6,1a8.88,8.88,0,0,1,4.9,1.2c11.1-14.2,21.7-14.9,34.59-25.4,6.11-4.9,5.2-9.4,7.61-13.5s6.39-3,8.3-4.6c-1.9,1.5-5.9.4-8.3,4.6"/><path id="_165940152" data-name=" 165940152" class="cls-16" d="M211.14,57.36H68.65v102.7a71.3,71.3,0,0,0,142.6,0v-.3C211.14,159.77,211.14,57.36,211.14,57.36Z"/></g></g><path id="korona-2" class="cls-5" d="M139.64,40.27c-16.7-.1-25.8,2.59-31.8,4.5l-1.2-5.6,2.3-.7-2.5-12.8-8.8-2.2-2.8-15.6,20.7-4.8,8,8.1,1.3,11,6.2-.6-2.1-4.2L127.64.56h24.2l-1.4,16.8-1.89,4.2,6.2.61,1.3-11,8-8.11,20.7,4.8-2.7,15.7-8.8,2.21-2.61,12.79,2.4.8-1.2,5.41C166.85,43.27,156.44,40.36,139.64,40.27Z"/><rect class="cls-8" x="69.01" y="57.36" width="142.22" height="49.27"/><path class="cls-17" d="M181.24,161.13l-1.67-7.35,5.67-2.73.53-.25-4.83-10-6.19,3-4.7-5.89L174,133l.36-.47-8.69-6.94L161.38,131l-6.78-3.28,1.41-6.13.13-.56-10.84-2.49-1.53,6.71s-2.41-.13-3.81-.13-3.73.13-3.73.13l-1.4-6.14-.13-.57L123.86,121l1.53,6.71-6.79,3.26L114.66,126l-.37-.46-8.7,6.92,4.29,5.39-4.71,5.89L99.51,141l-.53-.26-4.85,10,6.2,3-1.69,7.39H91.76v11.11h6.88l1.68,7.35-5.67,2.73-.53.26,4.82,10,6.2-3,4.7,5.89-3.93,4.91-.36.47,8.69,6.92,4.29-5.38,6.79,3.27-1.4,6.14-.14.58,10.84,2.48,1.54-6.72s2.37.12,3.77.12,3.76-.12,3.76-.12l1.4,6.14.13.58,10.84-2.48-1.53-6.71,6.79-3.27,3.92,4.93.37.46,8.7-6.93L170,195.5l4.69-5.89,5.67,2.73.53.26,4.83-10-6.2-3,1.68-7.34h6.88V161.13Z"/><circle class="cls-18" cx="139.94" cy="166.66" r="34"/><g id="Шар_4" data-name="Шар 4"><path class="cls-17" d="M125,151.13a5.1,5.1,0,0,0-7.21,2.39v37.76h9.34V153.52A5.25,5.25,0,0,0,125,151.13Z"/><path class="cls-17" d="M128.33,155.16H116.5a1.88,1.88,0,0,0-1,1.47,1.8,1.8,0,0,0,1,1.69h11.83a1.82,1.82,0,0,0,.94-1.69A1.89,1.89,0,0,0,128.33,155.16Z"/><path class="cls-17" d="M140,151.13a5.27,5.27,0,0,0-5.08,0,5.33,5.33,0,0,0-2.14,2.39v37.76h9.35V153.52A5.25,5.25,0,0,0,140,151.13Z"/><path class="cls-17" d="M143.33,155.16H131.5a1.88,1.88,0,0,0-.95,1.47,1.82,1.82,0,0,0,.95,1.69h11.83a1.82,1.82,0,0,0,.94-1.69A1.89,1.89,0,0,0,143.33,155.16Z"/><polygon class="cls-17" points="152.76 167.22 151.76 141.81 150.88 140.94 150.41 140.94 149.94 140.94 149.06 141.81 148.06 167.22 147.12 180.69 150.41 180.69 153.71 180.69 152.76 167.22"/><path class="cls-17" d="M150.41,139.19l-3.52-3.06c-1.7.15-3.5.25-5.38.28a78.44,78.44,0,0,1-10.72-.58,4,4,0,0,0,.44,1.8,5.05,5.05,0,0,0,4,2.34,28.92,28.92,0,0,0,7.94-.22,18,18,0,0,0,3.27-1.19Z"/><polygon class="cls-17" points="166.59 161.75 166.59 157.28 168.24 157.28 168.24 150.94 165.35 150.94 165.35 152.47 163.59 152.47 163.59 150.94 162.18 150.94 160.76 150.94 160.76 152.47 159 152.47 159 150.94 156.12 150.94 156.12 157.28 157.76 157.28 157.76 161.75 154.47 180.69 162.18 180.69 169.88 180.69 166.59 161.75"/></g><polygon class="cls-19" points="115.11 81.44 112.14 81.44 112.14 75.61 107.3 75.61 107.3 72.08 101.64 77.72 102.47 66.67 99.69 69.44 95.92 61.91 92.14 69.44 89.36 66.67 90.19 77.72 84.53 72.08 84.53 75.61 79.69 75.61 79.69 81.44 76.73 81.44 87.53 92.22 85.97 93.78 94.61 93.78 94.61 102.47 95.92 102.47 97.22 102.47 97.22 93.78 105.86 93.78 104.31 92.22 115.11 81.44"/><polygon class="cls-19" points="203.21 81.44 200.25 81.44 200.25 75.61 195.4 75.61 195.4 72.08 189.74 77.72 190.57 66.67 187.79 69.44 184.01 61.91 180.24 69.44 177.46 66.67 178.29 77.72 172.63 72.08 172.63 75.61 167.78 75.61 167.78 81.44 164.84 81.44 175.63 92.22 174.06 93.78 182.72 93.78 182.72 102.47 184.01 102.47 185.32 102.47 185.32 93.78 193.97 93.78 192.41 92.22 203.21 81.44"/><polygon class="cls-19" points="158.99 81.44 156.03 81.44 156.03 75.61 151.19 75.61 151.19 72.08 145.53 77.72 146.37 66.67 143.59 69.44 139.81 61.91 136.03 69.44 133.25 66.67 134.09 77.72 128.43 72.08 128.43 75.61 123.58 75.61 123.58 81.44 120.61 81.44 131.41 92.22 129.85 93.78 138.5 93.78 138.5 102.47 139.81 102.47 141.12 102.47 141.12 93.78 149.75 93.78 148.19 92.22 158.99 81.44"/><path class="cls-20" d="M75.7,261.52l-1.39-.32,1.42-1,4,.9-1,4.4q2-1.17,3.94-2.39l-2.22-.47,1.39-1.08c1.52.33,3,.64,4.58.93-1.56,1-3.14,1.95-4.74,2.89q1.13,2.73,2.31,5.46l1.64.32-1.49,1.17c-1.31-.26-2.62-.51-3.93-.79-.62-1.5-1.22-3-1.82-4.52l-.55,2.55,1.35.29L77.68,271l-4-.9C74.37,267.2,75,264.36,75.7,261.52Z"/><path class="cls-20" d="M90.77,270.48,90.51,272l1.81.3-1.46,1.21c-1.48-.25-3-.52-4.44-.79.54-2.87,1.07-5.74,1.61-8.61l-1.47-.28,1.43-1.1c1.76.34,3.53.65,5.3,1,3.16.51,4.56,1.91,4.21,4.17s-2.15,3.39-5.39,2.85Zm1.63-1.17a4.41,4.41,0,0,0,.73.09l.7-4.27-2.07-.35L91,269.07Z"/><path class="cls-20" d="M99.26,272.17l-.94,1.08-1.22,1.26H97l-1.49-.22c.88-1,1.75-2,2.6-3,.34-.37.67-.75,1-1.13l2.25-2.65-.39-1.31L99.3,266l1.31-1.17c1.32.19,2.65.36,4,.53q1.41,4.55,2.93,9.07l1.87.21L108,275.92l-4.27-.5C102.23,274.35,100.75,273.27,99.26,272.17Zm3.78,1c-.42-1.34-.83-2.69-1.23-4l-1.59,1.88c.94.72,1.87,1.45,2.83,2.15Z"/><path class="cls-20" d="M112.27,271l-1.14,3.82,2.2.2-1.33,1.3-2.75-.27c.72-2.4,1.43-4.81,2.12-7.21-.19-.47-.4-.95-.58-1.43l-1.42-.15,1.26-1.22q1.82.19,3.66.36c.11.32.23.65.34,1h0q1.17,2.43,2.34,4.89c.76-1.11,1.52-2.21,2.26-3.32l.06-.79-1.41-.1,1.22-1.26c1.34.1,2.69.19,4,.26-.16,2.89-.32,5.77-.5,8.65l1.53.08-1.31,1.36c-1.4-.08-2.79-.17-4.19-.27l.38-5.23q-1.94,2.88-4,5.75C114.1,275.28,113.19,273.13,112.27,271Z"/><path class="cls-20" d="M127.25,274.73c-.27.4-.55.78-.83,1.16l-1.13,1.38-1.6-.07c.78-1.07,1.54-2.15,2.31-3.21l.86-1.23c.67-.94,1.33-1.9,2-2.84l-.5-1.26-1.65-.08c.39-.42.79-.85,1.17-1.29,1.34.06,2.67.1,4,.14,1.23,2.92,2.49,5.83,3.81,8.74h1.89l-1.25,1.42c-1.43,0-2.86,0-4.29-.08C130.41,276.6,128.83,275.69,127.25,274.73Zm3.86.66c-.54-1.29-1.09-2.59-1.61-3.89-.47.68-.93,1.35-1.4,2Z"/><path class="cls-20" d="M138.77,268.86h-1.23c-.29.58-.58,1.15-.88,1.72h-1.58c.53-1,1-2,1.56-3q5,0,9.9-.08c-.47,1-1,2.07-1.45,3.1h-1.57l.84-1.74h-1.83l.09,7.33h1.52c-.4.49-.8,1-1.21,1.45h-4.19C138.75,274.7,138.77,271.79,138.77,268.86Z"/><path class="cls-20" d="M151.42,277.54c-3.06-.18-5.13-2.12-5.19-5.06a5.14,5.14,0,0,1,4.75-5.37l1.63-.07a5.12,5.12,0,0,1,5.22,4.92c.2,2.94-1.67,5.06-4.72,5.51Zm-.38-9a4.6,4.6,0,0,0-.94.28c.09,2.34.18,4.68.28,7a3.86,3.86,0,0,0,1,.2l1.68-.07a4.62,4.62,0,0,0,1-.29l-.36-7a4.14,4.14,0,0,0-1-.21Z"/><path class="cls-20" d="M163.69,273.6l.14,1.54,1.83-.16-1.11,1.53-4.47.36-.64-8.73-1.49.1c.37-.47.74-.94,1.1-1.42,1.79-.13,3.58-.27,5.36-.43q4.76-.42,5.13,3c.24,2.24-1.22,3.82-4.48,4.12Zm1.28-1.54a5.93,5.93,0,0,0,.72-.1c-.14-1.43-.26-2.87-.4-4.31l-2.08.19c.12,1.45.25,2.89.37,4.34Z"/><path class="cls-20" d="M176.16,275.45a4.93,4.93,0,0,1-5.6-4.18,3.13,3.13,0,0,1,0-.44,5,5,0,0,1,4.07-5.77,4.43,4.43,0,0,1,.51-.06,5.94,5.94,0,0,1,3.35.48l.27-.76,1.79-.27c-.63,1.68-1.27,3.33-1.93,5l-1.71.24c.36-.94.72-1.9,1.07-2.84a4.19,4.19,0,0,0-2.6-.43,3.69,3.69,0,0,0-1.18.32l.9,7.2a4.69,4.69,0,0,0,.92.07l1.65-.33a5.38,5.38,0,0,0,2.2-1.72l1.11,1a6.24,6.24,0,0,1-3.11,2.21Z"/><path class="cls-20" d="M193,269.17c.41,2.08-1,3.62-4.25,4.19q-2.67.47-5.36.88c-.45-2.88-.89-5.77-1.34-8.65l-1.39.22.91-1.5c1.33-.2,2.67-.42,4-.64l.57,3.35,1.51-.26C190.8,266.2,192.58,267.1,193,269.17ZM188.52,272l.73-.17c-.22-1.23-.43-2.48-.65-3.72a3.23,3.23,0,0,0-.72.11l-1.53.26c.22,1.26.42,2.52.64,3.78Z"/><path class="cls-20" d="M193.08,263.66l-1.4.26c.29-.51.57-1,.85-1.53l4-.81.93,4.42c.88-1.27,1.75-2.53,2.61-3.8l-2.21.48c.27-.51.55-1,.82-1.55l4.57-1c-1,1.52-2.08,3.05-3.15,4.57l4.36,4,1.63-.38-.88,1.67c-1.31.31-2.61.61-3.92.89-1.18-1.11-2.35-2.24-3.51-3.37l.53,2.55,1.36-.29c-.3.56-.61,1.11-.91,1.66-1.33.28-2.65.55-4,.81Z"/><path id="_165940152-2" data-name=" 165940152-2" class="cls-16" d="M211.14,57.36H68.65v102.7a71.3,71.3,0,0,0,142.6,0v-.3C211.14,159.77,211.14,57.36,211.14,57.36Z"/><path class="cls-10" d="M139.88,263c4.5.2,10.75.35,18.23,0,9.31-.46,16-.77,24.08-3.09a73,73,0,0,0,18.53-8.3,14.14,14.14,0,0,1,3-.61,14.73,14.73,0,0,1,5.41.44l1.14.35"/><path class="cls-10" d="M139.89,263c-4.49.2-10.75.35-18.22,0-9.32-.46-16-.77-24.09-3.09a73.27,73.27,0,0,1-18.53-8.3,13.89,13.89,0,0,0-3-.61,14.76,14.76,0,0,0-5.41.44l-1.14.35"/><path class="cls-10" d="M139.89,281.82h-14.6a176.39,176.39,0,0,1-18.09-1c-5.86-.62-18.55-1.72-28.23-5.38-3.91-1.49-5.27-2.58-6.18-3.53-2.7-2.84-2.68-5.78-5.48-7.33a7.39,7.39,0,0,0-4.69-.7"/><path class="cls-10" d="M139.88,281.82h14.61a176.39,176.39,0,0,0,18.09-1c5.86-.62,18.55-1.72,28.24-5.38,3.9-1.49,5.26-2.58,6.17-3.53,2.71-2.84,2.69-5.78,5.47-7.33a7.45,7.45,0,0,1,4.71-.7"/></g></g></svg>